<svg xmlns="http://www.w3.org/2000/svg" xmlns:xlink="http://www.w3.org/1999/xlink" width="500" zoomAndPan="magnify" viewBox="0 0 375 374.999991" height="500" preserveAspectRatio="xMidYMid meet" version="1.0"><defs><g/><clipPath id="6e9924b3f5"><path d="M 320.996094 208.738281 L 371.996094 208.738281 L 371.996094 259.738281 L 320.996094 259.738281 Z M 320.996094 208.738281 " clip-rule="nonzero"/></clipPath></defs><g fill="#994215" fill-opacity="1"><g transform="translate(15.20515, 252.084878)"><g><path d="M 109.53125 -154.359375 C 109.53125 -156.773438 108.84375 -158.867188 107.46875 -160.640625 C 106.09375 -162.421875 104.351562 -163.914062 102.25 -165.125 C 100.15625 -166.34375 97.851562 -167.273438 95.34375 -167.921875 C 92.84375 -168.566406 90.460938 -169.050781 88.203125 -169.375 C 94.015625 -168.894531 99.664062 -167.722656 105.15625 -165.859375 C 110.65625 -164.003906 115.742188 -161.660156 120.421875 -158.828125 C 125.109375 -156.003906 129.269531 -152.816406 132.90625 -149.265625 C 136.539062 -145.710938 139.570312 -142.078125 142 -138.359375 C 143.613281 -135.609375 144.863281 -132.898438 145.75 -130.234375 C 146.632812 -127.578125 147.078125 -124.957031 147.078125 -122.375 C 147.078125 -118.8125 146.390625 -115.457031 145.015625 -112.3125 C 143.648438 -109.164062 141.796875 -106.421875 139.453125 -104.078125 C 137.109375 -101.734375 134.359375 -99.875 131.203125 -98.5 C 128.054688 -97.125 124.707031 -96.4375 121.15625 -96.4375 C 117.601562 -96.4375 114.25 -97.125 111.09375 -98.5 C 107.945312 -99.875 105.203125 -101.734375 102.859375 -104.078125 C 100.515625 -106.421875 98.65625 -109.164062 97.28125 -112.3125 C 95.914062 -115.457031 95.234375 -118.8125 95.234375 -122.375 C 95.234375 -126.40625 95.957031 -129.753906 97.40625 -132.421875 C 98.863281 -135.085938 100.4375 -137.507812 102.125 -139.6875 C 103.820312 -141.875 105.4375 -144.054688 106.96875 -146.234375 C 108.507812 -148.410156 109.363281 -151.117188 109.53125 -154.359375 Z M 109.765625 -22.296875 C 116.546875 -22.296875 123.25 -23.789062 129.875 -26.78125 C 136.5 -29.769531 142.234375 -34.085938 147.078125 -39.734375 C 140.296875 -27.617188 131.25 -17.96875 119.9375 -10.78125 C 108.632812 -3.59375 96.117188 0 82.390625 0 C 71.890625 0 61.992188 -2.21875 52.703125 -6.65625 C 43.410156 -11.101562 35.289062 -17.160156 28.34375 -24.828125 C 21.40625 -32.503906 15.957031 -41.507812 12 -51.84375 C 8.039062 -62.1875 6.0625 -73.175781 6.0625 -84.8125 C 6.0625 -96.4375 8.039062 -107.414062 12 -117.75 C 15.957031 -128.09375 21.40625 -137.101562 28.34375 -144.78125 C 35.289062 -152.457031 43.410156 -158.515625 52.703125 -162.953125 C 61.992188 -167.398438 71.890625 -169.625 82.390625 -169.625 C 78.835938 -169.625 75.320312 -167.804688 71.84375 -164.171875 C 68.375 -160.535156 65.222656 -155.6875 62.390625 -149.625 C 59.566406 -143.570312 57.304688 -136.460938 55.609375 -128.296875 C 53.910156 -120.140625 53.0625 -111.617188 53.0625 -102.734375 C 53.0625 -91.585938 54.554688 -81.128906 57.546875 -71.359375 C 60.535156 -61.585938 64.570312 -53.066406 69.65625 -45.796875 C 74.75 -38.523438 80.769531 -32.789062 87.71875 -28.59375 C 94.664062 -24.394531 102.015625 -22.296875 109.765625 -22.296875 Z M 109.765625 -22.296875 "/></g></g></g><g fill="#994215" fill-opacity="1"><g transform="translate(151.379012, 252.084878)"><g><path d="M 109.53125 -154.359375 C 109.53125 -156.773438 108.84375 -158.867188 107.46875 -160.640625 C 106.09375 -162.421875 104.351562 -163.914062 102.25 -165.125 C 100.15625 -166.34375 97.851562 -167.273438 95.34375 -167.921875 C 92.84375 -168.566406 90.460938 -169.050781 88.203125 -169.375 C 94.015625 -168.894531 99.664062 -167.722656 105.15625 -165.859375 C 110.65625 -164.003906 115.742188 -161.660156 120.421875 -158.828125 C 125.109375 -156.003906 129.269531 -152.816406 132.90625 -149.265625 C 136.539062 -145.710938 139.570312 -142.078125 142 -138.359375 C 143.613281 -135.609375 144.863281 -132.898438 145.75 -130.234375 C 146.632812 -127.578125 147.078125 -124.957031 147.078125 -122.375 C 147.078125 -118.8125 146.390625 -115.457031 145.015625 -112.3125 C 143.648438 -109.164062 141.796875 -106.421875 139.453125 -104.078125 C 137.109375 -101.734375 134.359375 -99.875 131.203125 -98.5 C 128.054688 -97.125 124.707031 -96.4375 121.15625 -96.4375 C 117.601562 -96.4375 114.25 -97.125 111.09375 -98.5 C 107.945312 -99.875 105.203125 -101.734375 102.859375 -104.078125 C 100.515625 -106.421875 98.65625 -109.164062 97.28125 -112.3125 C 95.914062 -115.457031 95.234375 -118.8125 95.234375 -122.375 C 95.234375 -126.40625 95.957031 -129.753906 97.40625 -132.421875 C 98.863281 -135.085938 100.4375 -137.507812 102.125 -139.6875 C 103.820312 -141.875 105.4375 -144.054688 106.96875 -146.234375 C 108.507812 -148.410156 109.363281 -151.117188 109.53125 -154.359375 Z M 109.765625 -22.296875 C 116.546875 -22.296875 123.25 -23.789062 129.875 -26.78125 C 136.5 -29.769531 142.234375 -34.085938 147.078125 -39.734375 C 140.296875 -27.617188 131.25 -17.96875 119.9375 -10.78125 C 108.632812 -3.59375 96.117188 0 82.390625 0 C 71.890625 0 61.992188 -2.21875 52.703125 -6.65625 C 43.410156 -11.101562 35.289062 -17.160156 28.34375 -24.828125 C 21.40625 -32.503906 15.957031 -41.507812 12 -51.84375 C 8.039062 -62.1875 6.0625 -73.175781 6.0625 -84.8125 C 6.0625 -96.4375 8.039062 -107.414062 12 -117.75 C 15.957031 -128.09375 21.40625 -137.101562 28.34375 -144.78125 C 35.289062 -152.457031 43.410156 -158.515625 52.703125 -162.953125 C 61.992188 -167.398438 71.890625 -169.625 82.390625 -169.625 C 78.835938 -169.625 75.320312 -167.804688 71.84375 -164.171875 C 68.375 -160.535156 65.222656 -155.6875 62.390625 -149.625 C 59.566406 -143.570312 57.304688 -136.460938 55.609375 -128.296875 C 53.910156 -120.140625 53.0625 -111.617188 53.0625 -102.734375 C 53.0625 -91.585938 54.554688 -81.128906 57.546875 -71.359375 C 60.535156 -61.585938 64.570312 -53.066406 69.65625 -45.796875 C 74.75 -38.523438 80.769531 -32.789062 87.71875 -28.59375 C 94.664062 -24.394531 102.015625 -22.296875 109.765625 -22.296875 Z M 109.765625 -22.296875 "/></g></g></g><g fill="#994215" fill-opacity="1"><g transform="translate(175.785955, 275.817741)"><g><path d="M 6.421875 0.125 C 4.953125 0.125 3.828125 -0.3125 3.046875 -1.1875 C 2.265625 -2.070312 1.875 -3.238281 1.875 -4.6875 C 1.875 -6.125 2.164062 -7.4375 2.75 -8.625 C 3.34375 -9.820312 4.148438 -10.765625 5.171875 -11.453125 C 6.203125 -12.140625 7.332031 -12.484375 8.5625 -12.484375 C 9.9375 -12.484375 11.007812 -12.09375 11.78125 -11.3125 C 12.5625 -10.539062 12.988281 -9.5 13.0625 -8.1875 L 11.578125 -8.1875 C 11.492188 -9.070312 11.164062 -9.78125 10.59375 -10.3125 C 10.03125 -10.851562 9.289062 -11.125 8.375 -11.125 C 7.445312 -11.125 6.609375 -10.847656 5.859375 -10.296875 C 5.109375 -9.753906 4.519531 -9 4.09375 -8.03125 C 3.664062 -7.0625 3.453125 -5.976562 3.453125 -4.78125 C 3.453125 -3.675781 3.722656 -2.8125 4.265625 -2.1875 C 4.816406 -1.5625 5.617188 -1.25 6.671875 -1.25 C 7.535156 -1.25 8.320312 -1.484375 9.03125 -1.953125 C 9.75 -2.429688 10.3125 -3.066406 10.71875 -3.859375 L 12.21875 -3.859375 C 11.6875 -2.648438 10.914062 -1.679688 9.90625 -0.953125 C 8.894531 -0.234375 7.734375 0.125 6.421875 0.125 Z M 6.421875 0.125 "/></g></g></g><g fill="#994215" fill-opacity="1"><g transform="translate(191.925037, 275.817741)"><g><path d="M 6.390625 0.125 C 4.910156 0.125 3.773438 -0.300781 2.984375 -1.15625 C 2.203125 -2.019531 1.8125 -3.179688 1.8125 -4.640625 C 1.8125 -6.097656 2.101562 -7.421875 2.6875 -8.609375 C 3.28125 -9.804688 4.09375 -10.75 5.125 -11.4375 C 6.15625 -12.132812 7.289062 -12.484375 8.53125 -12.484375 C 10 -12.484375 11.125 -12.046875 11.90625 -11.171875 C 12.695312 -10.304688 13.09375 -9.140625 13.09375 -7.671875 C 13.09375 -6.222656 12.796875 -4.90625 12.203125 -3.71875 C 11.617188 -2.53125 10.8125 -1.59375 9.78125 -0.90625 C 8.757812 -0.21875 7.628906 0.125 6.390625 0.125 Z M 6.609375 -1.28125 C 7.503906 -1.28125 8.320312 -1.554688 9.0625 -2.109375 C 9.8125 -2.660156 10.398438 -3.40625 10.828125 -4.34375 C 11.265625 -5.289062 11.484375 -6.332031 11.484375 -7.46875 C 11.484375 -8.582031 11.207031 -9.460938 10.65625 -10.109375 C 10.101562 -10.765625 9.320312 -11.09375 8.3125 -11.09375 C 7.414062 -11.09375 6.59375 -10.816406 5.84375 -10.265625 C 5.101562 -9.710938 4.515625 -8.957031 4.078125 -8 C 3.640625 -7.050781 3.421875 -6.015625 3.421875 -4.890625 C 3.421875 -3.785156 3.695312 -2.90625 4.25 -2.25 C 4.800781 -1.601562 5.585938 -1.28125 6.609375 -1.28125 Z M 6.609375 -1.28125 "/></g></g></g><g fill="#994215" fill-opacity="1"><g transform="translate(208.465413, 275.817741)"><g><path d="M 1.140625 -1.390625 L 9.5625 -10.78125 L 9.5625 -10.828125 L 2.75 -10.828125 L 2.984375 -12.21875 L 11.625 -12.21875 L 11.390625 -10.828125 L 2.96875 -1.4375 L 2.96875 -1.390625 L 9.78125 -1.390625 L 9.546875 0 L 0.90625 0 Z M 1.140625 -1.390625 "/></g></g></g><g fill="#994215" fill-opacity="1"><g transform="translate(222.859722, 275.817741)"><g><path d="M 4.578125 0.015625 L 5.328125 -4.421875 L 2.671875 -12.21875 L 4.3125 -12.21875 L 6.296875 -6.109375 L 6.421875 -6.109375 L 10.484375 -12.21875 L 12.125 -12.21875 L 6.84375 -4.421875 L 6.09375 0 Z M 4.578125 0.015625 "/></g></g></g><g fill="#994215" fill-opacity="1"><g transform="translate(237.288929, 275.817741)"><g/></g></g><g fill="#994215" fill-opacity="1"><g transform="translate(245.018229, 275.817741)"><g><path d="M 6.421875 0.125 C 4.953125 0.125 3.828125 -0.3125 3.046875 -1.1875 C 2.265625 -2.070312 1.875 -3.238281 1.875 -4.6875 C 1.875 -6.125 2.164062 -7.4375 2.75 -8.625 C 3.34375 -9.820312 4.148438 -10.765625 5.171875 -11.453125 C 6.203125 -12.140625 7.332031 -12.484375 8.5625 -12.484375 C 9.9375 -12.484375 11.007812 -12.09375 11.78125 -11.3125 C 12.5625 -10.539062 12.988281 -9.5 13.0625 -8.1875 L 11.578125 -8.1875 C 11.492188 -9.070312 11.164062 -9.78125 10.59375 -10.3125 C 10.03125 -10.851562 9.289062 -11.125 8.375 -11.125 C 7.445312 -11.125 6.609375 -10.847656 5.859375 -10.296875 C 5.109375 -9.753906 4.519531 -9 4.09375 -8.03125 C 3.664062 -7.0625 3.453125 -5.976562 3.453125 -4.78125 C 3.453125 -3.675781 3.722656 -2.8125 4.265625 -2.1875 C 4.816406 -1.5625 5.617188 -1.25 6.671875 -1.25 C 7.535156 -1.25 8.320312 -1.484375 9.03125 -1.953125 C 9.75 -2.429688 10.3125 -3.066406 10.71875 -3.859375 L 12.21875 -3.859375 C 11.6875 -2.648438 10.914062 -1.679688 9.90625 -0.953125 C 8.894531 -0.234375 7.734375 0.125 6.421875 0.125 Z M 6.421875 0.125 "/></g></g></g><g fill="#994215" fill-opacity="1"><g transform="translate(261.157311, 275.817741)"><g><path d="M 6.390625 0.125 C 4.910156 0.125 3.773438 -0.300781 2.984375 -1.15625 C 2.203125 -2.019531 1.8125 -3.179688 1.8125 -4.640625 C 1.8125 -6.097656 2.101562 -7.421875 2.6875 -8.609375 C 3.28125 -9.804688 4.09375 -10.75 5.125 -11.4375 C 6.15625 -12.132812 7.289062 -12.484375 8.53125 -12.484375 C 10 -12.484375 11.125 -12.046875 11.90625 -11.171875 C 12.695312 -10.304688 13.09375 -9.140625 13.09375 -7.671875 C 13.09375 -6.222656 12.796875 -4.90625 12.203125 -3.71875 C 11.617188 -2.53125 10.8125 -1.59375 9.78125 -0.90625 C 8.757812 -0.21875 7.628906 0.125 6.390625 0.125 Z M 6.609375 -1.28125 C 7.503906 -1.28125 8.320312 -1.554688 9.0625 -2.109375 C 9.8125 -2.660156 10.398438 -3.40625 10.828125 -4.34375 C 11.265625 -5.289062 11.484375 -6.332031 11.484375 -7.46875 C 11.484375 -8.582031 11.207031 -9.460938 10.65625 -10.109375 C 10.101562 -10.765625 9.320312 -11.09375 8.3125 -11.09375 C 7.414062 -11.09375 6.59375 -10.816406 5.84375 -10.265625 C 5.101562 -9.710938 4.515625 -8.957031 4.078125 -8 C 3.640625 -7.050781 3.421875 -6.015625 3.421875 -4.890625 C 3.421875 -3.785156 3.695312 -2.90625 4.25 -2.25 C 4.800781 -1.601562 5.585938 -1.28125 6.609375 -1.28125 Z M 6.609375 -1.28125 "/></g></g></g><g fill="#994215" fill-opacity="1"><g transform="translate(277.697687, 275.817741)"><g><path d="M 11.203125 -9.203125 C 11.203125 -8.535156 11.050781 -7.90625 10.75 -7.3125 C 10.457031 -6.71875 10.023438 -6.210938 9.453125 -5.796875 C 8.890625 -5.378906 8.210938 -5.097656 7.421875 -4.953125 L 9.796875 0 L 8.140625 0 L 5.828125 -4.875 L 3.625 -4.875 L 2.8125 0 L 1.3125 0 L 3.390625 -12.21875 L 7.546875 -12.21875 C 8.804688 -12.21875 9.726562 -11.925781 10.3125 -11.34375 C 10.90625 -10.769531 11.203125 -10.054688 11.203125 -9.203125 Z M 6.3125 -6.15625 C 7.363281 -6.15625 8.191406 -6.414062 8.796875 -6.9375 C 9.410156 -7.457031 9.71875 -8.148438 9.71875 -9.015625 C 9.71875 -9.691406 9.46875 -10.164062 8.96875 -10.4375 C 8.476562 -10.71875 7.863281 -10.859375 7.125 -10.859375 L 4.65625 -10.859375 L 3.859375 -6.15625 Z M 6.3125 -6.15625 "/></g></g></g><g fill="#994215" fill-opacity="1"><g transform="translate(291.969864, 275.817741)"><g><path d="M 3.390625 -12.21875 L 5.078125 -12.21875 L 9.953125 -2.40625 L 10 -2.40625 L 11.6875 -12.21875 L 13.171875 -12.21875 L 11.09375 0 L 9.390625 0 L 4.515625 -9.671875 L 4.453125 -9.671875 L 2.796875 0 L 1.3125 0 Z M 3.390625 -12.21875 "/></g></g></g><g fill="#994215" fill-opacity="1"><g transform="translate(308.091485, 275.817741)"><g><path d="M 4.671875 -10.859375 L 4 -6.84375 L 9.265625 -6.84375 L 9.0625 -5.625 L 3.78125 -5.625 L 3.046875 -1.359375 L 9.0625 -1.359375 L 8.828125 0 L 1.3125 0 L 3.390625 -12.21875 L 10.90625 -12.21875 L 10.703125 -10.859375 Z M 4.671875 -10.859375 "/></g></g></g><g fill="#994215" fill-opacity="1"><g transform="translate(321.73554, 275.817741)"><g><path d="M 11.203125 -9.203125 C 11.203125 -8.535156 11.050781 -7.90625 10.75 -7.3125 C 10.457031 -6.71875 10.023438 -6.210938 9.453125 -5.796875 C 8.890625 -5.378906 8.210938 -5.097656 7.421875 -4.953125 L 9.796875 0 L 8.140625 0 L 5.828125 -4.875 L 3.625 -4.875 L 2.8125 0 L 1.3125 0 L 3.390625 -12.21875 L 7.546875 -12.21875 C 8.804688 -12.21875 9.726562 -11.925781 10.3125 -11.34375 C 10.90625 -10.769531 11.203125 -10.054688 11.203125 -9.203125 Z M 6.3125 -6.15625 C 7.363281 -6.15625 8.191406 -6.414062 8.796875 -6.9375 C 9.410156 -7.457031 9.71875 -8.148438 9.71875 -9.015625 C 9.71875 -9.691406 9.46875 -10.164062 8.96875 -10.4375 C 8.476562 -10.71875 7.863281 -10.859375 7.125 -10.859375 L 4.65625 -10.859375 L 3.859375 -6.15625 Z M 6.3125 -6.15625 "/></g></g></g><g fill="#994215" fill-opacity="1"><g transform="translate(336.007716, 275.817741)"><g><path d="M 5.3125 0.140625 C 4.363281 0.140625 3.59375 -0.0507812 3 -0.4375 C 2.414062 -0.832031 2 -1.332031 1.75 -1.9375 C 1.507812 -2.539062 1.410156 -3.191406 1.453125 -3.890625 L 1.453125 -3.984375 L 3.125 -3.984375 L 3.125 -3.890625 C 3.125 -3.179688 3.296875 -2.5625 3.640625 -2.03125 C 3.992188 -1.5 4.632812 -1.234375 5.5625 -1.234375 C 6.132812 -1.234375 6.648438 -1.347656 7.109375 -1.578125 C 7.578125 -1.804688 7.945312 -2.113281 8.21875 -2.5 C 8.5 -2.894531 8.640625 -3.332031 8.640625 -3.8125 C 8.640625 -4.257812 8.484375 -4.617188 8.171875 -4.890625 C 7.867188 -5.171875 7.476562 -5.359375 7 -5.453125 L 5.265625 -5.78125 C 3.554688 -6.144531 2.703125 -7.019531 2.703125 -8.40625 C 2.703125 -9.164062 2.90625 -9.859375 3.3125 -10.484375 C 3.71875 -11.109375 4.269531 -11.597656 4.96875 -11.953125 C 5.675781 -12.304688 6.46875 -12.484375 7.34375 -12.484375 C 8.226562 -12.484375 8.945312 -12.300781 9.5 -11.9375 C 10.0625 -11.570312 10.460938 -11.109375 10.703125 -10.546875 C 10.953125 -9.992188 11.078125 -9.394531 11.078125 -8.75 L 11.078125 -8.671875 L 9.359375 -8.671875 L 9.359375 -8.734375 C 9.359375 -9.347656 9.207031 -9.90625 8.90625 -10.40625 C 8.601562 -10.90625 7.988281 -11.15625 7.0625 -11.15625 C 6.550781 -11.15625 6.078125 -11.039062 5.640625 -10.8125 C 5.203125 -10.59375 4.859375 -10.289062 4.609375 -9.90625 C 4.359375 -9.53125 4.234375 -9.113281 4.234375 -8.65625 C 4.234375 -8.238281 4.378906 -7.898438 4.671875 -7.640625 C 4.960938 -7.390625 5.351562 -7.210938 5.84375 -7.109375 L 7.40625 -6.796875 C 9.300781 -6.378906 10.25 -5.472656 10.25 -4.078125 C 10.25 -3.304688 10.03125 -2.597656 9.59375 -1.953125 C 9.15625 -1.304688 8.554688 -0.796875 7.796875 -0.421875 C 7.046875 -0.046875 6.21875 0.140625 5.3125 0.140625 Z M 5.3125 0.140625 "/></g></g></g><g clip-path="url(#6e9924b3f5)"><path fill="#994215" d="M 371.980469 234.230469 C 352.859375 237.75 350.007812 240.601562 346.488281 259.722656 C 342.96875 240.601562 340.113281 237.75 320.996094 234.230469 C 340.113281 230.710938 342.96875 227.855469 346.488281 208.738281 C 350.007812 227.855469 352.859375 230.710938 371.980469 234.230469 Z M 371.980469 234.230469 " fill-opacity="1" fill-rule="nonzero"/></g></svg>